<svg xmlns="http://www.w3.org/2000/svg" viewBox="0 0 100 100" width="100" height="100">
  <!-- 背景圆形 -->
  <circle cx="50" cy="50" r="45" fill="#4FC08D" opacity="0.1"/>
  
  <!-- 主图标 - 书本和AI芯片 -->
  <g transform="translate(50, 50)">
    <!-- 书本 -->
    <rect x="-25" y="-15" width="50" height="30" rx="3" fill="#4FC08D" stroke="#2C3E50" stroke-width="2"/>
    <rect x="-20" y="-10" width="40" height="20" fill="#ECF0F1"/>
    
    <!-- 书页线条 -->
    <line x1="-15" y1="-5" x2="15" y2="-5" stroke="#BDC3C7" stroke-width="1"/>
    <line x1="-15" y1="0" x2="15" y2="0" stroke="#BDC3C7" stroke-width="1"/>
    <line x1="-15" y1="5" x2="15" y2="5" stroke="#BDC3C7" stroke-width="1"/>
    <line x1="-15" y1="10" x2="15" y2="10" stroke="#BDC3C7" stroke-width="1"/>
    
    <!-- AI芯片 -->
    <rect x="-8" y="-8" width="16" height="16" fill="#E74C3C" stroke="#C0392B" stroke-width="1"/>
    <rect x="-6" y="-6" width="12" height="12" fill="#F39C12"/>
    
    <!-- 芯片引脚 -->
    <rect x="-8" y="-2" width="2" height="4" fill="#34495E"/>
    <rect x="6" y="-2" width="2" height="4" fill="#34495E"/>
    <rect x="-2" y="-8" width="4" height="2" fill="#34495E"/>
    <rect x="-2" y="6" width="4" height="2" fill="#34495E"/>
    
    <!-- 中心点 -->
    <circle cx="0" cy="0" r="2" fill="#E74C3C"/>
  </g>
  
  <!-- 装饰元素 -->
  <circle cx="20" cy="20" r="3" fill="#3498DB" opacity="0.6"/>
  <circle cx="80" cy="30" r="2" fill="#9B59B6" opacity="0.6"/>
  <circle cx="25" cy="75" r="2.5" fill="#E67E22" opacity="0.6"/>
</svg>
